<mxfile host="Electron" modified="2023-06-11T11:26:11.476Z" agent="Mozilla/5.0 (Windows NT 10.0; Win64; x64) AppleWebKit/537.36 (KHTML, like Gecko) draw.io/21.3.7 Chrome/112.0.5615.204 Electron/24.5.0 Safari/537.36" etag="wZ_E1ZGbRRB1D97c5gpU" version="21.3.7" type="device">
  <diagram name="Pagina-1" id="64v7JMrL0VLeNJr7uzDy">
    <mxGraphModel dx="1418" dy="828" grid="1" gridSize="10" guides="1" tooltips="1" connect="1" arrows="1" fold="1" page="1" pageScale="1" pageWidth="827" pageHeight="1169" math="0" shadow="0">
      <root>
        <mxCell id="0" />
        <mxCell id="1" parent="0" />
        <mxCell id="fDQOZsog6arXoFUsMDsp-1" value="" style="ellipse;whiteSpace=wrap;html=1;aspect=fixed;shadow=0;gradientColor=none;fillStyle=auto;fillColor=#000000;" parent="1" vertex="1">
          <mxGeometry x="200" y="80" width="40" height="40" as="geometry" />
        </mxCell>
        <mxCell id="fDQOZsog6arXoFUsMDsp-2" value="Sell user shoe" style="text;html=1;align=center;verticalAlign=middle;resizable=0;points=[];autosize=1;strokeColor=none;fillColor=none;" parent="1" vertex="1">
          <mxGeometry x="170" y="50" width="100" height="30" as="geometry" />
        </mxCell>
        <mxCell id="fDQOZsog6arXoFUsMDsp-3" value="" style="endArrow=classic;html=1;rounded=0;" parent="1" edge="1">
          <mxGeometry width="50" height="50" relative="1" as="geometry">
            <mxPoint x="219.82" y="120" as="sourcePoint" />
            <mxPoint x="220" y="160" as="targetPoint" />
          </mxGeometry>
        </mxCell>
        <mxCell id="fDQOZsog6arXoFUsMDsp-4" value="Select the sell menu" style="rounded=0;whiteSpace=wrap;html=1;" parent="1" vertex="1">
          <mxGeometry x="160" y="160" width="120" height="60" as="geometry" />
        </mxCell>
        <mxCell id="fDQOZsog6arXoFUsMDsp-5" value="" style="endArrow=classic;html=1;rounded=0;" parent="1" edge="1">
          <mxGeometry width="50" height="50" relative="1" as="geometry">
            <mxPoint x="219.82" y="220" as="sourcePoint" />
            <mxPoint x="220" y="260" as="targetPoint" />
          </mxGeometry>
        </mxCell>
        <mxCell id="fDQOZsog6arXoFUsMDsp-6" value="* Insert shoe data" style="rounded=0;whiteSpace=wrap;html=1;" parent="1" vertex="1">
          <mxGeometry x="160" y="360" width="120" height="60" as="geometry" />
        </mxCell>
        <mxCell id="fDQOZsog6arXoFUsMDsp-7" value="" style="ellipse;whiteSpace=wrap;html=1;aspect=fixed;shadow=0;gradientColor=none;fillStyle=auto;fillColor=#000000;" parent="1" vertex="1">
          <mxGeometry x="840" y="80" width="40" height="40" as="geometry" />
        </mxCell>
        <mxCell id="fDQOZsog6arXoFUsMDsp-8" value="" style="endArrow=classic;html=1;rounded=0;" parent="1" edge="1">
          <mxGeometry width="50" height="50" relative="1" as="geometry">
            <mxPoint x="859.82" y="120" as="sourcePoint" />
            <mxPoint x="859.82" y="160" as="targetPoint" />
          </mxGeometry>
        </mxCell>
        <mxCell id="fDQOZsog6arXoFUsMDsp-9" value="" style="endArrow=none;html=1;rounded=0;strokeWidth=4;" parent="1" edge="1">
          <mxGeometry width="50" height="50" relative="1" as="geometry">
            <mxPoint x="620" y="160" as="sourcePoint" />
            <mxPoint x="1100" y="160" as="targetPoint" />
          </mxGeometry>
        </mxCell>
        <mxCell id="fDQOZsog6arXoFUsMDsp-10" value="Select condition" style="rounded=0;whiteSpace=wrap;html=1;" parent="1" vertex="1">
          <mxGeometry x="910" y="200" width="90" height="60" as="geometry" />
        </mxCell>
        <mxCell id="fDQOZsog6arXoFUsMDsp-11" value="Insert retail price" style="rounded=0;whiteSpace=wrap;html=1;" parent="1" vertex="1">
          <mxGeometry x="810" y="200" width="90" height="60" as="geometry" />
        </mxCell>
        <mxCell id="fDQOZsog6arXoFUsMDsp-12" value="Insert item" style="rounded=0;whiteSpace=wrap;html=1;" parent="1" vertex="1">
          <mxGeometry x="720" y="200" width="80" height="60" as="geometry" />
        </mxCell>
        <mxCell id="fDQOZsog6arXoFUsMDsp-13" value="Insert brand" style="rounded=0;whiteSpace=wrap;html=1;" parent="1" vertex="1">
          <mxGeometry x="620" y="200" width="90" height="60" as="geometry" />
        </mxCell>
        <mxCell id="fDQOZsog6arXoFUsMDsp-14" value="Insert&amp;nbsp; the size" style="rounded=0;whiteSpace=wrap;html=1;" parent="1" vertex="1">
          <mxGeometry x="1010" y="200" width="90" height="60" as="geometry" />
        </mxCell>
        <mxCell id="fDQOZsog6arXoFUsMDsp-15" value="" style="endArrow=classic;html=1;rounded=0;" parent="1" edge="1">
          <mxGeometry width="50" height="50" relative="1" as="geometry">
            <mxPoint x="664.75" y="160" as="sourcePoint" />
            <mxPoint x="664.9300000000001" y="200" as="targetPoint" />
          </mxGeometry>
        </mxCell>
        <mxCell id="fDQOZsog6arXoFUsMDsp-16" value="" style="endArrow=classic;html=1;rounded=0;" parent="1" edge="1">
          <mxGeometry width="50" height="50" relative="1" as="geometry">
            <mxPoint x="759.75" y="160" as="sourcePoint" />
            <mxPoint x="759.9300000000001" y="200" as="targetPoint" />
          </mxGeometry>
        </mxCell>
        <mxCell id="fDQOZsog6arXoFUsMDsp-17" value="" style="endArrow=classic;html=1;rounded=0;" parent="1" edge="1">
          <mxGeometry width="50" height="50" relative="1" as="geometry">
            <mxPoint x="859.75" y="160" as="sourcePoint" />
            <mxPoint x="859.9300000000001" y="200" as="targetPoint" />
          </mxGeometry>
        </mxCell>
        <mxCell id="fDQOZsog6arXoFUsMDsp-18" value="" style="endArrow=classic;html=1;rounded=0;" parent="1" edge="1">
          <mxGeometry width="50" height="50" relative="1" as="geometry">
            <mxPoint x="954.75" y="160" as="sourcePoint" />
            <mxPoint x="954.9300000000001" y="200" as="targetPoint" />
          </mxGeometry>
        </mxCell>
        <mxCell id="fDQOZsog6arXoFUsMDsp-19" value="" style="endArrow=classic;html=1;rounded=0;" parent="1" edge="1">
          <mxGeometry width="50" height="50" relative="1" as="geometry">
            <mxPoint x="1054.75" y="160" as="sourcePoint" />
            <mxPoint x="1054.93" y="200" as="targetPoint" />
          </mxGeometry>
        </mxCell>
        <mxCell id="fDQOZsog6arXoFUsMDsp-20" value="" style="endArrow=classic;html=1;rounded=0;" parent="1" edge="1">
          <mxGeometry width="50" height="50" relative="1" as="geometry">
            <mxPoint x="664.75" y="260" as="sourcePoint" />
            <mxPoint x="664.9300000000001" y="300" as="targetPoint" />
          </mxGeometry>
        </mxCell>
        <mxCell id="fDQOZsog6arXoFUsMDsp-21" value="" style="endArrow=classic;html=1;rounded=0;" parent="1" edge="1">
          <mxGeometry width="50" height="50" relative="1" as="geometry">
            <mxPoint x="759.75" y="260" as="sourcePoint" />
            <mxPoint x="759.9300000000001" y="300" as="targetPoint" />
          </mxGeometry>
        </mxCell>
        <mxCell id="fDQOZsog6arXoFUsMDsp-22" value="" style="endArrow=classic;html=1;rounded=0;" parent="1" edge="1">
          <mxGeometry width="50" height="50" relative="1" as="geometry">
            <mxPoint x="859.75" y="260" as="sourcePoint" />
            <mxPoint x="859.9300000000001" y="300" as="targetPoint" />
          </mxGeometry>
        </mxCell>
        <mxCell id="fDQOZsog6arXoFUsMDsp-23" value="" style="endArrow=classic;html=1;rounded=0;" parent="1" edge="1">
          <mxGeometry width="50" height="50" relative="1" as="geometry">
            <mxPoint x="954.75" y="260" as="sourcePoint" />
            <mxPoint x="954.9300000000001" y="300" as="targetPoint" />
          </mxGeometry>
        </mxCell>
        <mxCell id="fDQOZsog6arXoFUsMDsp-24" value="" style="endArrow=classic;html=1;rounded=0;" parent="1" edge="1">
          <mxGeometry width="50" height="50" relative="1" as="geometry">
            <mxPoint x="1054.75" y="260" as="sourcePoint" />
            <mxPoint x="1054.93" y="300" as="targetPoint" />
          </mxGeometry>
        </mxCell>
        <mxCell id="fDQOZsog6arXoFUsMDsp-25" value="" style="endArrow=none;html=1;rounded=0;strokeWidth=4;" parent="1" edge="1">
          <mxGeometry width="50" height="50" relative="1" as="geometry">
            <mxPoint x="620" y="300" as="sourcePoint" />
            <mxPoint x="1100" y="300" as="targetPoint" />
          </mxGeometry>
        </mxCell>
        <mxCell id="fDQOZsog6arXoFUsMDsp-26" value="" style="endArrow=classic;html=1;rounded=0;" parent="1" edge="1">
          <mxGeometry width="50" height="50" relative="1" as="geometry">
            <mxPoint x="859.75" y="300" as="sourcePoint" />
            <mxPoint x="859.9300000000001" y="340" as="targetPoint" />
          </mxGeometry>
        </mxCell>
        <mxCell id="fDQOZsog6arXoFUsMDsp-29" value="" style="group" parent="1" vertex="1" connectable="0">
          <mxGeometry x="840" y="340" width="40" height="40" as="geometry" />
        </mxCell>
        <mxCell id="fDQOZsog6arXoFUsMDsp-28" value="" style="ellipse;whiteSpace=wrap;html=1;aspect=fixed;" parent="fDQOZsog6arXoFUsMDsp-29" vertex="1">
          <mxGeometry width="40" height="40" as="geometry" />
        </mxCell>
        <mxCell id="fDQOZsog6arXoFUsMDsp-27" value="" style="ellipse;whiteSpace=wrap;html=1;aspect=fixed;shadow=0;gradientColor=none;fillStyle=auto;fillColor=#000000;" parent="fDQOZsog6arXoFUsMDsp-29" vertex="1">
          <mxGeometry x="4" y="4" width="32" height="32" as="geometry" />
        </mxCell>
        <mxCell id="fDQOZsog6arXoFUsMDsp-30" value="*&amp;nbsp;Insert shoe data" style="text;html=1;align=center;verticalAlign=middle;resizable=0;points=[];autosize=1;strokeColor=none;fillColor=none;" parent="1" vertex="1">
          <mxGeometry x="800" y="50" width="120" height="30" as="geometry" />
        </mxCell>
        <mxCell id="fDQOZsog6arXoFUsMDsp-31" value="" style="rhombus;whiteSpace=wrap;html=1;" parent="1" vertex="1">
          <mxGeometry x="190" y="460" width="60" height="60" as="geometry" />
        </mxCell>
        <mxCell id="fDQOZsog6arXoFUsMDsp-32" value="" style="endArrow=classic;html=1;rounded=0;" parent="1" edge="1">
          <mxGeometry width="50" height="50" relative="1" as="geometry">
            <mxPoint x="219.75" y="420" as="sourcePoint" />
            <mxPoint x="219.93" y="460" as="targetPoint" />
          </mxGeometry>
        </mxCell>
        <mxCell id="fDQOZsog6arXoFUsMDsp-33" value="[Data is not valid]" style="text;html=1;align=center;verticalAlign=middle;resizable=0;points=[];autosize=1;strokeColor=none;fillColor=none;" parent="1" vertex="1">
          <mxGeometry x="255" y="460" width="120" height="30" as="geometry" />
        </mxCell>
        <mxCell id="fDQOZsog6arXoFUsMDsp-34" value="[Data is valid]" style="text;html=1;align=center;verticalAlign=middle;resizable=0;points=[];autosize=1;strokeColor=none;fillColor=none;" parent="1" vertex="1">
          <mxGeometry x="60" y="460" width="100" height="30" as="geometry" />
        </mxCell>
        <mxCell id="fDQOZsog6arXoFUsMDsp-36" value="" style="endArrow=classic;html=1;rounded=0;entryX=0.5;entryY=0;entryDx=0;entryDy=0;exitX=1;exitY=0.5;exitDx=0;exitDy=0;" parent="1" source="fDQOZsog6arXoFUsMDsp-31" target="fDQOZsog6arXoFUsMDsp-40" edge="1">
          <mxGeometry width="50" height="50" relative="1" as="geometry">
            <mxPoint x="269.5" y="490" as="sourcePoint" />
            <mxPoint x="360" y="591" as="targetPoint" />
            <Array as="points">
              <mxPoint x="360" y="490" />
            </Array>
          </mxGeometry>
        </mxCell>
        <mxCell id="fDQOZsog6arXoFUsMDsp-71" style="edgeStyle=orthogonalEdgeStyle;rounded=0;orthogonalLoop=1;jettySize=auto;html=1;exitX=0.5;exitY=1;exitDx=0;exitDy=0;entryX=0.5;entryY=1;entryDx=0;entryDy=0;" parent="1" source="fDQOZsog6arXoFUsMDsp-40" target="fDQOZsog6arXoFUsMDsp-70" edge="1">
          <mxGeometry relative="1" as="geometry" />
        </mxCell>
        <mxCell id="fDQOZsog6arXoFUsMDsp-40" value="Display a error message" style="rounded=0;whiteSpace=wrap;html=1;" parent="1" vertex="1">
          <mxGeometry x="300" y="645" width="120" height="60" as="geometry" />
        </mxCell>
        <mxCell id="fDQOZsog6arXoFUsMDsp-42" value="" style="rhombus;whiteSpace=wrap;html=1;" parent="1" vertex="1">
          <mxGeometry x="190" y="260" width="60" height="60" as="geometry" />
        </mxCell>
        <mxCell id="fDQOZsog6arXoFUsMDsp-43" value="" style="endArrow=classic;html=1;rounded=0;" parent="1" edge="1">
          <mxGeometry width="50" height="50" relative="1" as="geometry">
            <mxPoint x="219.57999999999998" y="320" as="sourcePoint" />
            <mxPoint x="219.76" y="360" as="targetPoint" />
          </mxGeometry>
        </mxCell>
        <mxCell id="fDQOZsog6arXoFUsMDsp-46" value="" style="endArrow=classic;html=1;rounded=0;exitX=0;exitY=0.5;exitDx=0;exitDy=0;entryX=0.5;entryY=0;entryDx=0;entryDy=0;" parent="1" source="fDQOZsog6arXoFUsMDsp-31" target="fDQOZsog6arXoFUsMDsp-56" edge="1">
          <mxGeometry width="50" height="50" relative="1" as="geometry">
            <mxPoint x="70" y="560" as="sourcePoint" />
            <mxPoint x="80" y="591" as="targetPoint" />
            <Array as="points">
              <mxPoint x="80" y="490" />
            </Array>
          </mxGeometry>
        </mxCell>
        <mxCell id="fDQOZsog6arXoFUsMDsp-56" value="Display a message to confirm succesfull data entry" style="rounded=0;whiteSpace=wrap;html=1;" parent="1" vertex="1">
          <mxGeometry x="20" y="585" width="120" height="60" as="geometry" />
        </mxCell>
        <mxCell id="fDQOZsog6arXoFUsMDsp-58" value="" style="endArrow=classic;html=1;rounded=0;exitX=0.5;exitY=1;exitDx=0;exitDy=0;entryX=0.5;entryY=0;entryDx=0;entryDy=0;" parent="1" source="fDQOZsog6arXoFUsMDsp-56" target="fDQOZsog6arXoFUsMDsp-59" edge="1">
          <mxGeometry width="50" height="50" relative="1" as="geometry">
            <mxPoint x="219.58" y="830" as="sourcePoint" />
            <mxPoint x="90" y="880" as="targetPoint" />
          </mxGeometry>
        </mxCell>
        <mxCell id="fDQOZsog6arXoFUsMDsp-60" style="edgeStyle=orthogonalEdgeStyle;rounded=0;orthogonalLoop=1;jettySize=auto;html=1;exitX=0.5;exitY=1;exitDx=0;exitDy=0;entryX=0.5;entryY=0;entryDx=0;entryDy=0;" parent="1" source="fDQOZsog6arXoFUsMDsp-59" target="fDQOZsog6arXoFUsMDsp-62" edge="1">
          <mxGeometry relative="1" as="geometry">
            <mxPoint x="190" y="870" as="targetPoint" />
          </mxGeometry>
        </mxCell>
        <mxCell id="fDQOZsog6arXoFUsMDsp-59" value="Return to home menu" style="rounded=0;whiteSpace=wrap;html=1;" parent="1" vertex="1">
          <mxGeometry x="20" y="720" width="120" height="60" as="geometry" />
        </mxCell>
        <mxCell id="fDQOZsog6arXoFUsMDsp-61" value="" style="group" parent="1" vertex="1" connectable="0">
          <mxGeometry x="60" y="840" width="40" height="40" as="geometry" />
        </mxCell>
        <mxCell id="fDQOZsog6arXoFUsMDsp-62" value="" style="ellipse;whiteSpace=wrap;html=1;aspect=fixed;" parent="fDQOZsog6arXoFUsMDsp-61" vertex="1">
          <mxGeometry width="40" height="40" as="geometry" />
        </mxCell>
        <mxCell id="fDQOZsog6arXoFUsMDsp-63" value="" style="ellipse;whiteSpace=wrap;html=1;aspect=fixed;shadow=0;gradientColor=none;fillStyle=auto;fillColor=#000000;" parent="fDQOZsog6arXoFUsMDsp-61" vertex="1">
          <mxGeometry x="4" y="4" width="32" height="32" as="geometry" />
        </mxCell>
        <mxCell id="fDQOZsog6arXoFUsMDsp-72" style="edgeStyle=orthogonalEdgeStyle;rounded=0;orthogonalLoop=1;jettySize=auto;html=1;exitX=0.5;exitY=0;exitDx=0;exitDy=0;entryX=1;entryY=0.5;entryDx=0;entryDy=0;" parent="1" source="fDQOZsog6arXoFUsMDsp-70" target="fDQOZsog6arXoFUsMDsp-42" edge="1">
          <mxGeometry relative="1" as="geometry" />
        </mxCell>
        <mxCell id="fDQOZsog6arXoFUsMDsp-70" value="" style="shape=collate;whiteSpace=wrap;html=1;" parent="1" vertex="1">
          <mxGeometry x="480" y="470" width="35" height="40" as="geometry" />
        </mxCell>
        <mxCell id="fDQOZsog6arXoFUsMDsp-73" value="Wait 5 minutes" style="text;html=1;align=center;verticalAlign=middle;resizable=0;points=[];autosize=1;strokeColor=none;fillColor=none;" parent="1" vertex="1">
          <mxGeometry x="515" y="475" width="100" height="30" as="geometry" />
        </mxCell>
      </root>
    </mxGraphModel>
  </diagram>
</mxfile>
